<?xml version="1.0" encoding="utf-8"?>
<!-- Generator: Adobe Illustrator 24.0.0, SVG Export Plug-In . SVG Version: 6.00 Build 0)  -->
<svg version="1.1" id="图层_1" xmlns="http://www.w3.org/2000/svg" xmlns:xlink="http://www.w3.org/1999/xlink" x="0px" y="0px"
	 viewBox="0 0 5902.1 1079" style="enable-background:new 0 0 5902.1 1079;" xml:space="preserve">
<style type="text/css">
	.st0{fill:#0C2135;}
	.st1{fill:#FFFFFF;}
	.st2{fill:#00597B;}
	.st3{fill:#DCE6F4;}
</style>
<rect x="-0.7" y="-0.4" class="st0" width="5870.4" height="1079.8"/>
<path class="st1" d="M5874.1-0.4c31.5,101.2-145.8,175.3-74.4,356.3c51.3,130,89.4,213.3-29.5,395.3
	c-96.4,147.6-72,282.4-59.3,328.2h191.2V-0.4H5874.1z"/>
<path class="st1" d="M5874.4-0.3c31.5,101.2-145.8,175.3-74.4,356.3c51.3,130,89.4,213.3-29.5,395.3
	c-96.4,147.6-72,282.4-59.3,328.2h191.2V-0.3H5874.4z"/>
<path class="st2" d="M5770.2,751.2c118.8-182,80.8-265.3,29.5-395.3c-71.4-181,105.9-255.1,74.4-356.3H5766
	c-37.6,56.7-101.1,179.9-42.6,300.3c79.5,163.6,142.2,221,74.2,349.2c-67.6,127.4-128.3,213.8-104.7,430.3h18
	C5698.3,1033.7,5673.9,898.8,5770.2,751.2z"/>
<path class="st3" d="M5799.7,355.9c51.3,130,89.4,213.3-29.5,395.3c-96.4,147.6-72,282.4-59.3,328.2h47.2
	c-14-53.4-28.6-158.6,28.8-268.5c82.2-157.4,103.4-271.4,30.9-441.2s13.3-219.3,71.6-325.3c13.5-24.5,15.2-38.2,9.9-44.8h-25.2
	C5905.6,100.8,5728.3,174.9,5799.7,355.9z"/>
</svg>
